<?xml version="1.0" encoding="UTF-8" standalone="no"?>
<svg
   xmlns:dc="http://purl.org/dc/elements/1.1/"
   xmlns:cc="http://creativecommons.org/ns#"
   xmlns:rdf="http://www.w3.org/1999/02/22-rdf-syntax-ns#"
   xmlns:svg="http://www.w3.org/2000/svg"
   xmlns="http://www.w3.org/2000/svg"
   xmlns:xlink="http://www.w3.org/1999/xlink"
   xmlns:sodipodi="http://sodipodi.sourceforge.net/DTD/sodipodi-0.dtd"
   xmlns:inkscape="http://www.inkscape.org/namespaces/inkscape"
   sodipodi:docname="gv-logo.svg"
   inkscape:version="1.0.1 (3bc2e813f5, 2020-09-07)"
   id="svg8"
   version="1.1"
   viewBox="0 0 779.63945 210"
   height="595.27557pt"
   width="2210pt">
  <defs
     id="defs2">
    <linearGradient
       id="linearGradient898"
       inkscape:collect="always">
      <stop
         id="stop894"
         offset="0"
         style="stop-color:#00b358;stop-opacity:1" />
      <stop
         id="stop896"
         offset="1"
         style="stop-color:#004e28;stop-opacity:1" />
    </linearGradient>
    <linearGradient
       id="linearGradient892"
       inkscape:collect="always">
      <stop
         id="stop888"
         offset="0"
         style="stop-color:#00b358;stop-opacity:1" />
      <stop
         id="stop890"
         offset="1"
         style="stop-color:#004e28;stop-opacity:1" />
    </linearGradient>
    <linearGradient
       id="linearGradient886"
       inkscape:collect="always">
      <stop
         id="stop882"
         offset="0"
         style="stop-color:#00b358;stop-opacity:1" />
      <stop
         id="stop884"
         offset="1"
         style="stop-color:#004e28;stop-opacity:1" />
    </linearGradient>
    <linearGradient
       id="linearGradient880"
       inkscape:collect="always">
      <stop
         id="stop876"
         offset="0"
         style="stop-color:#00b358;stop-opacity:1" />
      <stop
         id="stop878"
         offset="1"
         style="stop-color:#004e28;stop-opacity:1" />
    </linearGradient>
    <linearGradient
       inkscape:collect="always"
       id="linearGradient864">
      <stop
         style="stop-color:#00b358;stop-opacity:1"
         offset="0"
         id="stop860" />
      <stop
         style="stop-color:#004e28;stop-opacity:1"
         offset="1"
         id="stop862" />
    </linearGradient>
    <rect
       x="-27.796062"
       y="281.16776"
       width="645.72394"
       height="180.67441"
       id="rect852" />
    <rect
       x="230.56548"
       y="9.8273811"
       width="282.36758"
       height="137.8755"
       id="rect846" />
    <linearGradient
       id="linearGradient1264"
       inkscape:collect="always">
      <stop
         id="stop1260"
         offset="0"
         style="stop-color:#52c9ff;stop-opacity:1" />
      <stop
         id="stop1262"
         offset="1"
         style="stop-color:#2d94ff;stop-opacity:1" />
    </linearGradient>
    <linearGradient
       gradientUnits="userSpaceOnUse"
       y2="192.76785"
       x2="96.761902"
       y1="18.975731"
       x1="97.060272"
       id="linearGradient1266"
       xlink:href="#linearGradient1264"
       inkscape:collect="always" />
    <linearGradient
       inkscape:collect="always"
       xlink:href="#linearGradient864"
       id="linearGradient866"
       x1="49.948917"
       y1="40.568298"
       x2="155.18025"
       y2="191.62518"
       gradientUnits="userSpaceOnUse" />
    <linearGradient
       inkscape:collect="always"
       xlink:href="#linearGradient898"
       id="linearGradient868"
       x1="49.948917"
       y1="40.568298"
       x2="155.18025"
       y2="191.62518"
       gradientUnits="userSpaceOnUse" />
    <linearGradient
       inkscape:collect="always"
       xlink:href="#linearGradient892"
       id="linearGradient870"
       x1="49.948917"
       y1="40.568298"
       x2="155.18025"
       y2="191.62518"
       gradientUnits="userSpaceOnUse" />
    <linearGradient
       inkscape:collect="always"
       xlink:href="#linearGradient886"
       id="linearGradient872"
       x1="49.948917"
       y1="40.568298"
       x2="155.18025"
       y2="191.62518"
       gradientUnits="userSpaceOnUse" />
    <linearGradient
       inkscape:collect="always"
       xlink:href="#linearGradient880"
       id="linearGradient874"
       x1="49.948917"
       y1="40.568298"
       x2="155.18025"
       y2="191.62518"
       gradientUnits="userSpaceOnUse" />
  </defs>
  <sodipodi:namedview
     inkscape:window-maximized="1"
     inkscape:window-y="-8"
     inkscape:window-x="-8"
     inkscape:window-height="1017"
     inkscape:window-width="1920"
     units="pt"
     showgrid="false"
     inkscape:document-rotation="0"
     inkscape:current-layer="layer1"
     inkscape:document-units="mm"
     inkscape:cy="482.10136"
     inkscape:cx="1659.2521"
     inkscape:zoom="0.175"
     inkscape:pageshadow="2"
     inkscape:pageopacity="0.0"
     borderopacity="1.0"
     bordercolor="#666666"
     pagecolor="#ffffff"
     id="base"
     showguides="true"
     inkscape:guide-bbox="true">
    <sodipodi:guide
       position="234.12838,126.61191"
       orientation="1,0"
       id="guide858" />
  </sodipodi:namedview>
  <metadata
     id="metadata5">
    <rdf:RDF>
      <cc:Work
         rdf:about="">
        <dc:format>image/svg+xml</dc:format>
        <dc:type
           rdf:resource="http://purl.org/dc/dcmitype/StillImage" />
        <dc:title />
      </cc:Work>
    </rdf:RDF>
  </metadata>
  <g
     id="layer1"
     inkscape:groupmode="layer"
     inkscape:label="Layer 1">
    <path
       id="path1147"
       d="M 155.18025,191.62519 C 107.55798,219.12004 46.663981,202.80345 19.169133,155.18118 -8.3257156,107.55891 7.9904693,46.664096 55.613147,19.169652 103.23582,-8.3247912 164.12942,7.9917985 191.62427,55.613666 219.11912,103.23553 202.80253,164.13034 155.18025,191.62519 Z"
       style="fill:url(#linearGradient1266);fill-opacity:1;stroke-width:0.404848"
       inkscape:export-xdpi="18.380812"
       inkscape:export-ydpi="18.380812" />
    <path
       style="fill:url(#linearGradient870);fill-opacity:1;stroke-width:0.405;stroke-miterlimit:4;stroke-dasharray:none"
       d="m 112.42385,75.601823 c -0.71658,0.168012 -2.10521,0.520634 -2.7056,1.002403 -0.74978,0.6012 0.42185,1.382961 -0.006,1.725463 -0.73885,0.591078 -1.27446,1.663115 -2.8562,1.561903 -3.30437,-0.210926 -8.382788,-4.485311 -11.402549,-6.101059 4.867889,-5.00959 -2.833532,-5.760178 -5.835075,-5.509172 -3.886946,0.325093 -10.613496,-0.02551 -14.124742,1.951367 -2.436781,1.37203 -5.712001,7.066622 -7.675109,9.328508 -2.732724,3.148099 -5.482452,5.881228 -7.262974,9.650363 -6.532222,13.826771 3.521773,29.700461 19.322991,27.843831 4.386934,-0.51538 8.988841,-3.27361 12.877001,0.36598 2.86511,2.68212 1.348954,5.20634 2.108449,8.3342 0.657473,2.70681 3.654563,4.37195 4.691784,6.85772 1.989014,4.76506 0.729534,7.74515 -0.690266,12.14018 -1.863111,5.76706 2.95499,12.61425 4.83024,18.1797 0.94411,2.80236 3.69586,10.64993 6.39741,11.87783 4.24767,1.93113 10.90539,-3.86022 13.44176,-6.97512 1.98295,-2.43516 1.3356,-4.90878 2.66755,-7.18889 1.44166,-2.46755 3.26591,-3.20842 4.276,-6.38971 1.08864,-3.42907 2.21978,-4.28208 4.51892,-6.78445 3.70152,-4.02743 3.12664,-6.38243 1.64692,-11.15801 -3.07482,-9.92121 8.09372,-14.55915 13.12436,-21.84196 5.25331,-7.60507 -4.90109,-5.06991 -8.88075,-7.67106 -4.09179,-2.67443 -5.88001,-7.757293 -7.85162,-11.970951 -1.97242,-4.214063 -3.60436,-10.546696 -6.87027,-14.008146 -2.51613,-2.665115 -10.16938,-3.901521 -13.74216,-5.22092 z"
       id="path1149"
       inkscape:export-xdpi="18.380812"
       inkscape:export-ydpi="18.380812" />
    <path
       style="fill:url(#linearGradient866);fill-opacity:1;stroke-width:0.404848"
       d="m 163.82012,142.156 c -1.58741,5.34966 -3.17442,10.69933 -4.76183,16.04899 -1.10969,3.73998 -5.03307,15.97449 -10.53738,8.13785 -2.09226,-2.97806 -0.39068,-6.88039 0.7765,-9.62081 1.47243,-3.4574 -0.5174,-5.19825 0.5093,-8.47144 1.17729,-3.75173 6.0209,-3.88007 8.31274,-6.51887 1.59834,-1.83963 2.58415,-4.76465 3.75213,-6.91845 0.65019,2.44812 1.29956,4.89502 1.94854,7.34273 z"
       id="path1151"
       inkscape:export-xdpi="18.380812"
       inkscape:export-ydpi="18.380812" />
    <path
       style="fill:url(#linearGradient868);fill-opacity:1;stroke-width:0.404848"
       d="M 191.62427,55.613666 C 174.47491,25.910372 144.33154,8.3881447 112.5198,6.0772722 l -13.020723,16.3331888 -27.906579,9.783557 -7.48645,18.148527 11.54829,16.177322 1.227499,-3.420156 c 2.049746,-5.710381 7.462969,-9.518787 13.529616,-9.518787 h 19.033117 l 21.87799,7.688064 7.53544,7.19334 v 4.569115 l 10.47625,20.067101 3.05053,-1.125072 c 6.58769,-2.429088 12.56932,-6.258141 17.53437,-11.222792 l -2.52908,-3.794236 c -0.80444,-1.206447 0.0607,-2.822195 1.51048,-2.822195 h 6.10511 c 1.78781,0 3.48574,0.782976 4.64685,2.142455 l 4.98732,5.839123 c 0.47529,0.556262 0.84654,1.193492 1.09673,1.880924 l 5.50351,15.134434 2.61977,-2.619772 c 1.65178,-1.652185 2.48819,-3.902735 2.52706,-6.238708 0.0312,-1.87809 0.84613,-3.659826 2.25055,-4.912426 l 2.00643,-1.789428 c 0.50444,-0.449786 1.06718,-0.815364 1.66635,-1.091875 -2.18091,-9.20422 -5.71321,-18.252168 -10.68596,-26.86531 z"
       id="path1153"
       inkscape:export-xdpi="18.380812"
       inkscape:export-ydpi="18.380812" />
    <path
       style="fill:url(#linearGradient874);fill-opacity:1;stroke-width:0.404848"
       d="m 42.669751,59.503041 4.762227,-5.103109 c 3.472381,-3.720958 4.456162,-9.125679 2.51694,-13.831633 v 0 C 47.898768,35.592717 43.40374,32.366888 38.428158,31.699699 20.84156,47.649901 9.9070198,69.094296 6.7613507,91.809103 c 3.7181243,3.25012 7.6091183,6.729384 7.5868523,7.035854 -0.04291,0.586625 13.930415,-1.75623 13.930415,-1.75623 l -7.19334,-10.552364 10.330507,-7.386452 z"
       id="path1155"
       inkscape:export-xdpi="18.380812"
       inkscape:export-ydpi="18.380812" />
    <path
       style="fill:url(#linearGradient872);fill-opacity:1;stroke-width:0.404848"
       d="m 52.352906,158.71226 c 4.488954,-1.45826 6.945572,-6.27959 5.48731,-10.76814 l -1.282154,-3.94687 c -0.56031,-1.72425 -0.557476,-3.58169 0.0077,-5.30432 v 0 c 1.601976,-4.88327 -1.437623,-10.06533 -6.48122,-11.05113 L 40.022854,125.67545 21.643159,111.70131 6.4479983,116.63762 c 1.4922698,13.19602 5.6569417,26.30743 12.7207297,38.54315 6.533437,11.31591 14.955086,20.8598 24.633383,28.47296 l 4.52782,-23.63462 z"
       id="path1157"
       inkscape:export-xdpi="18.380812"
       inkscape:export-ydpi="18.380812" />
    <path
       style="stroke-width:0.404848"
       id="path1161"
       d="m 153.14873,188.12407 -0.15587,0.0899 c -1.93355,1.12184 -2.59143,3.5991 -1.47,5.53306 0.75099,1.2943 2.10926,2.01736 3.50517,2.01736 0.68905,0 1.38863,-0.17692 2.02789,-0.54776 l 0.15586,-0.0899 c 1.93356,-1.12183 2.59143,-3.5991 1.47,-5.53305 -1.12142,-1.93275 -3.59828,-2.59144 -5.53305,-1.4696 z"
       inkscape:export-xdpi="18.380812"
       inkscape:export-ydpi="18.380812" />
    <path
       style="stroke-width:0.404848"
       id="path1163"
       d="M 195.13025,53.589831 C 181.29174,29.620804 158.94777,12.475895 132.21404,5.3125143 105.48111,-1.8508666 77.557934,1.8255583 53.588907,15.663668 29.61988,29.501779 12.474971,51.846151 5.3119948,78.57948 c -7.1629761,26.73333 -3.486956,54.65691 10.3511542,78.62553 12.413045,21.50027 32.142099,37.84034 55.55284,46.00936 11.097289,3.87197 22.682016,5.80431 34.248931,5.80431 12.5766,0 25.13053,-2.28577 36.99703,-6.84679 2.087,-0.80201 3.12826,-3.14405 2.32586,-5.23104 -0.80241,-2.08699 -3.14486,-3.12948 -5.23105,-2.32585 -31.58624,12.14017 -65.780512,6.62412 -91.327636,-12.55191 l 3.627033,-18.93272 1.747729,-0.5676 c 6.604286,-2.14569 10.231724,-9.26454 8.086839,-15.86923 l -1.282558,-3.94686 c -0.296754,-0.91334 -0.295135,-1.8789 0.004,-2.79143 1.125073,-3.42987 0.723059,-7.18241 -1.103211,-10.2965 -1.826269,-3.11409 -4.905138,-5.29703 -8.447963,-5.98973 l -9.13742,-1.78538 -17.630322,-13.40451 c -1.056248,-0.80322 -2.438804,-1.03763 -3.70112,-0.62792 l -10.322005,3.35295 c -0.2190232,-3.69181 -0.222262,-7.38241 -0.01417,-11.05357 0.407277,0.37934 0.672452,0.63723 0.835606,0.80646 0.202019,0.33643 0.452215,0.64492 0.745325,0.91212 0.842894,0.76759 1.606437,1.11576 3.209635,1.11576 1.473242,-4e-4 3.654159,-0.29392 7.255282,-0.82589 3.415298,-0.50484 6.812782,-1.07365 6.846385,-1.07932 1.361504,-0.22793 2.512487,-1.134791 3.054173,-2.403989 0.541687,-1.269604 0.398775,-2.727461 -0.378938,-3.868323 l -4.963841,-7.280787 7.109941,-5.084081 c 0.473672,-0.338858 0.868804,-0.775689 1.15827,-1.280939 L 45.94902,61.921198 50.391417,57.160995 c 4.539561,-4.865463 5.835074,-11.983906 3.299916,-18.135976 -1.495508,-3.628653 -4.107588,-6.649629 -7.374711,-8.68561 3.538371,-2.781711 7.31115,-5.350066 11.320765,-7.664583 C 72.348754,14.181115 88.403407,10.065025 104.28924,9.9075393 L 97.060272,18.97573 70.253261,28.373872 c -1.088637,0.381367 -1.963108,1.209686 -2.402773,2.27646 l -7.48645,18.148528 c -0.531565,1.28944 -0.362744,2.760658 0.447357,3.895852 l 10.934136,15.31621 c -1.565953,1.428709 -3.090205,3.509628 -4.910807,6.093368 -0.79836,1.133169 -1.552187,2.203183 -2.073227,2.803168 -0.453025,0.522254 -0.906454,1.032362 -1.355836,1.537612 -2.351762,2.645682 -4.783279,5.38205 -6.510765,9.037018 -3.798285,8.039877 -3.031098,17.384582 2.001973,24.387642 4.866678,6.77108 12.889956,10.2131 21.453301,9.20584 1.395107,-0.16356 2.695883,-0.48542 3.954556,-0.79715 3.470762,-0.85868 4.570329,-0.94451 5.683661,0.0976 0.541687,0.50727 0.591483,0.60322 0.580552,2.32302 -0.0077,1.09471 -0.01619,2.45662 0.361125,4.01164 0.604438,2.48779 2.167151,4.20718 3.421775,5.58852 0.623871,0.68622 1.269199,1.39632 1.467979,1.87283 1.262721,3.02583 0.712937,4.7015 -0.49189,8.37347 -0.103236,0.31416 -0.208497,0.6348 -0.314162,0.96354 -1.830318,5.66584 0.721034,11.28594 2.971989,16.24412 0.731156,1.61008 1.421421,3.12988 1.873637,4.47316 3.639988,10.80094 6.368668,13.27456 8.558488,14.27049 1.14693,0.52145 2.33395,0.75018 3.53311,0.74978 5.83588,-4.1e-4 11.92561,-5.41889 14.72311,-8.85403 1.75704,-2.15703 2.18982,-4.31689 2.5056,-5.89458 0.15749,-0.7846 0.28137,-1.40402 0.5178,-1.80886 0.36193,-0.61942 0.78824,-1.09957 1.3279,-1.70765 1.0854,-1.22224 2.43597,-2.74285 3.31125,-5.49946 0.66476,-2.09387 1.14775,-2.60722 2.7473,-4.31082 0.27854,-0.29594 0.57529,-0.61254 0.89391,-0.95909 5.39217,-5.86746 4.00354,-10.34953 2.53273,-15.09516 -1.23762,-3.99302 0.9271,-6.5468 6.16097,-11.42076 2.26877,-2.1129 4.61446,-4.29746 6.42778,-6.92209 0.7935,-1.14896 3.20761,-4.64402 1.71372,-8.1083 -1.46434,-3.39667 -5.18611,-3.96751 -8.17631,-4.4258 -1.18095,-0.18137 -2.96552,-0.45505 -3.53352,-0.82629 -2.50479,-1.63761 -4.03714,-5.05534 -5.51929,-8.360924 -0.29513,-0.657878 -0.58622,-1.307254 -0.88135,-1.937603 -0.52631,-1.124668 -1.0522,-2.485362 -1.60887,-3.925811 -1.47284,-3.812049 -3.14203,-8.132992 -5.98365,-11.145061 -2.55419,-2.706409 -7.36905,-4.01002 -11.61712,-5.160598 -1.42871,-0.38663 -2.77726,-0.751803 -3.66671,-1.080134 -0.74532,-0.275297 -1.55421,-0.325093 -2.32625,-0.143721 -2.06756,0.484603 -3.35741,1.018597 -4.31528,1.786189 -0.25303,0.202829 -1.0024,0.868804 -1.44126,1.939222 -1.48215,-0.711318 -3.52015,-2.069583 -4.77437,-2.905594 -0.0259,-0.01741 -0.0522,-0.03482 -0.0781,-0.05223 0.42267,-1.691455 0.0401,-3.04891 -0.36072,-3.896662 -2.261881,-4.783684 -9.768573,-4.4092 -11.249507,-4.283292 -0.841274,0.07044 -1.90562,0.108095 -3.031502,0.14777 -1.768376,0.06275 -3.722982,0.133195 -5.656941,0.350193 L 80.6919,64.467718 C 82.159841,60.377513 86.065815,57.629 90.411453,57.629 h 2.301157 c 2.23557,0 4.048075,-1.81291 4.048075,-4.048076 0,-2.23557 -1.81291,-4.048075 -4.048075,-4.048075 h -2.301157 c -6.451658,0 -12.359605,3.39546 -15.670857,8.739859 l -6.038308,-8.45849 5.94074,-14.400039 26.195282,-9.183977 c 0.7182,-0.251816 1.35139,-0.701197 1.82627,-1.296728 l 11.64424,-14.606512 c 29.7539,2.830292 57.76129,19.51246 73.81027,47.310135 4.27479,7.404265 7.43706,15.199209 9.53944,23.171881 l -1.71615,1.530325 c -2.24003,1.998735 -3.55254,4.865464 -3.60275,7.865793 -4e-4,0.03279 -0.001,0.06518 -0.002,0.09757 l -2.79588,-7.688874 c -0.41659,-1.147339 -1.03034,-2.199539 -1.82304,-3.127046 l -4.98732,-5.839123 c -1.93355,-2.263505 -4.74887,-3.561043 -7.7249,-3.561043 h -6.10471 c -2.16715,0 -4.14766,1.187015 -5.16991,3.096683 -1.02224,1.910073 -0.9105,4.216897 0.29149,6.01928 l 0.6178,0.927507 c -3.94484,3.392221 -8.50747,6.106727 -13.36565,7.93745 l -8.3678,-16.029148 V 68.46233 c 0,-1.106045 -0.45262,-2.164722 -1.25301,-2.927861 l -7.53543,-7.193744 c -0.41578,-0.396752 -0.91132,-0.700388 -1.45341,-0.891071 l -6.78363,-2.383745 c -2.11047,-0.742491 -4.42054,0.368007 -5.16141,2.47686 -0.74128,2.109663 0.3676,4.420131 2.47686,5.161407 l 5.96098,2.095089 5.65249,5.39541 v 2.837174 c 0,0.652211 0.15789,1.295109 0.45991,1.873637 l 10.47625,20.067102 c 0.94208,1.805622 3.08049,2.630702 4.98894,1.924647 l 3.05053,-1.124667 c 7.08687,-2.613699 13.65553,-6.818046 18.99628,-12.157991 1.36434,-1.364743 1.57648,-3.501936 0.50566,-5.107968 l -0.21538,-0.323473 h 1.93315 c 0.60443,0 1.17648,0.263556 1.56919,0.723463 l 4.98732,5.839123 c 0.16072,0.188254 0.28501,0.401204 0.37003,0.634802 l 5.50391,15.134436 c 0.47286,1.30037 1.57729,2.26876 2.92705,2.56835 0.29149,0.0644 0.58501,0.096 0.8769,0.096 1.06192,0 2.0955,-0.41821 2.86228,-1.1858 l 2.61977,-2.619769 c 1.65907,-1.659472 2.80114,-3.759014 3.34688,-6.086485 4.05172,32.470834 -8.68035,66.060264 -35.59222,87.182804 -1.75906,1.38013 -2.06594,3.9246 -0.685,5.68366 1.38013,1.75907 3.92419,2.06594 5.68366,0.685 19.42947,-15.24941 32.77731,-37.06059 37.58488,-61.41585 4.85291,-24.59006 0.61618,-50.101555 -11.93047,-71.832987 z M 20.879211,116.20646 37.572309,128.89885 c 0.49351,0.37529 1.065965,0.63197 1.674047,0.75059 l 10.061283,1.96594 c 1.284178,0.25101 2.355406,1.0105 3.017332,2.13922 0.661927,1.12831 0.801194,2.43394 0.393917,3.67723 -0.838035,2.55581 -0.842084,5.25898 -0.01093,7.8164 l 1.282559,3.94646 c 0.766377,2.35865 -0.529946,4.9015 -2.888186,5.66787 l -4.022975,1.30726 c -1.403608,0.45586 -2.447306,1.63963 -2.724627,3.08818 L 41.116754,176.16 C 33.998311,169.64478 27.748267,161.94457 22.675117,153.15734 16.485395,142.43818 12.618287,131.00487 10.913877,119.44403 Z M 10.308629,99.094748 c 0.01134,0.175704 0.0336,0.350194 0.0672,0.522659 -0.03279,-0.162749 -0.05546,-0.338048 -0.0672,-0.522659 z M 46.205693,42.109556 c 1.33195,3.231901 0.650996,6.971887 -1.733559,9.528098 l -4.762227,5.102299 c -0.212545,0.22793 -0.398371,0.479745 -0.553427,0.750184 l -10.814301,18.880492 -9.611497,6.8727 c -1.790238,1.28013 -2.229903,3.754965 -0.990258,5.573543 l 3.594646,5.27274 c -2.072012,0.308495 -3.931479,0.562739 -5.167885,0.697554 -0.237646,-0.22793 -0.486223,-0.459098 -0.743301,-0.697958 -0.962324,-0.893905 -2.299537,-2.087802 -4.293009,-3.832292 3.287771,-20.348876 13.09319,-39.519239 28.514661,-54.152471 2.953366,0.929126 5.376382,3.132309 6.560157,6.005111 z m 40.33015,30.377366 c 1.226285,-0.04332 2.38496,-0.08461 3.419752,-0.171251 0.54614,-0.04575 1.152602,-0.03725 1.724652,0.0073 -0.255459,0.655853 -0.338453,1.375673 -0.227524,2.089825 0.194731,1.256243 0.969206,2.347309 2.089825,2.946889 0.759495,0.406467 1.816553,1.111308 2.935553,1.857443 3.163887,2.109258 6.750839,4.499885 10.119579,4.714455 3.06389,0.19878 4.76871,-1.547329 5.49905,-2.29144 0.0583,-0.05911 0.11336,-0.118216 0.17166,-0.17206 0.41132,-0.335215 0.79674,-0.784596 1.08337,-1.326687 0.64735,0.185015 1.3275,0.369221 2.02465,0.558285 2.3971,0.648971 6.85853,1.857038 7.84474,2.901546 1.75096,1.856228 3.11571,5.389337 4.32013,8.506261 0.60849,1.575264 1.18337,3.061866 1.82829,4.440374 0.27692,0.591483 0.54938,1.200779 0.8263,1.817767 1.86797,4.166691 3.98532,8.889651 8.47711,11.825611 2.03679,1.33154 4.53349,1.71412 6.73667,2.05217 0.26639,0.0409 0.57165,0.0879 0.88176,0.13887 -1.30766,1.82424 -3.16955,3.5578 -5.13671,5.38974 -5.01161,4.66708 -11.2487,10.47584 -8.37631,19.74241 1.35584,4.3756 1.419,4.84846 -0.76111,7.22006 -0.29716,0.32347 -0.57407,0.6182 -0.83358,0.89431 -1.86716,1.9878 -3.34202,3.5578 -4.56304,7.40386 -0.35465,1.11698 -0.81415,1.63437 -1.64855,2.57362 -0.66719,0.7514 -1.49834,1.68741 -2.26512,2.99911 -0.9182,1.57162 -1.22183,3.08495 -1.46515,4.3007 -0.24007,1.19633 -0.3761,1.79672 -0.84572,2.37363 -1.06921,1.31251 -3.06349,3.21854 -5.1108,4.51932 -1.90279,1.20806 -3.01369,1.37324 -3.39223,1.35057 -0.43197,-0.46315 -1.99671,-2.49063 -4.36102,-9.50826 -0.58298,-1.73113 -1.39187,-3.51246 -2.17403,-5.23509 -1.72425,-3.79748 -3.5068,-7.7245 -2.63961,-10.40824 0.10242,-0.31659 0.20364,-0.62589 0.30323,-0.92832 1.38539,-4.22256 2.69305,-8.20991 0.27044,-14.01543 -0.73764,-1.76797 -1.9121,-3.05984 -2.9473,-4.19989 -0.670019,-0.73723 -1.429109,-1.57284 -1.54611,-2.0538 -0.142507,-0.58662 -0.138053,-1.26393 -0.13279,-2.04812 0.01377,-2.11533 0.03482,-5.31161 -3.142835,-8.28724 -4.480049,-4.19342 -9.704208,-2.90155 -13.16161,-2.04651 -1.061916,0.26234 -2.065129,0.51092 -2.954176,0.61537 -5.687305,0.66638 -10.764908,-1.47931 -13.934868,-5.89054 -3.316111,-4.61405 -3.797475,-10.823203 -1.255839,-16.203633 1.230333,-2.603578 3.08899,-4.695428 5.241162,-7.116419 0.470029,-0.529136 0.944511,-1.062726 1.418993,-1.609271 0.789453,-0.910098 1.658257,-2.142455 2.576857,-3.44728 1.097543,-1.557856 3.139597,-4.456163 4.026214,-5.007566 1.805217,-1.015358 5.996204,-1.163938 9.056045,-1.272437 z"
       inkscape:export-xdpi="18.380812"
       inkscape:export-ydpi="18.380812" />
    <path
       style="stroke-width:0.404848"
       id="path1165"
       d="m 153.16937,172.87506 c 4.12945,-0.67488 7.23383,-4.97032 9.77061,-13.51909 l 4.76182,-16.04898 c 0.21133,-0.71335 0.22267,-1.47122 0.0316,-2.19023 l -1.94773,-7.34152 c -0.42549,-1.60319 -1.78578,-2.78454 -3.4323,-2.9813 -1.64854,-0.1927 -3.24728,0.63157 -4.03876,2.08942 -0.44372,0.8178 -0.8433,1.68417 -1.22953,2.5218 -0.64978,1.40928 -1.32182,2.86673 -2.021,3.67116 -0.3927,0.45181 -1.40158,0.93885 -2.37646,1.40928 -2.33071,1.12467 -5.52293,2.66511 -6.74233,6.55247 -0.75707,2.41127 -0.47449,4.31891 -0.26801,5.71159 0.17853,1.20766 0.21983,1.62628 -0.10364,2.38577 l -0.0405,0.0943 c -1.28863,3.02381 -3.68614,8.65322 -0.32428,13.43893 2.39872,3.4153 4.92093,4.29341 6.88079,4.29341 0.38299,10e-4 0.74492,-0.0324 1.07973,-0.087 z m -1.33559,-8.85929 c -0.77366,-1.10199 0.38258,-3.8161 1.14774,-5.61241 l 0.0409,-0.0947 c 1.23398,-2.89628 0.90403,-5.12052 0.66396,-6.74477 -0.15425,-1.04005 -0.20931,-1.48701 -0.0162,-2.10116 0.1587,-0.50485 1.10726,-0.99471 2.53637,-1.68457 0.63359,-0.30607 1.33114,-0.6425 2.03517,-1.04977 l -3.06308,10.32443 c -1.29308,4.35859 -2.43718,6.39336 -3.09749,7.29536 -0.0765,-0.0964 -0.1591,-0.20647 -0.24736,-0.33238 z"
       inkscape:export-xdpi="18.380812"
       inkscape:export-ydpi="18.380812" />
    <path
       style="stroke-width:0.404848"
       id="path1167"
       d="m 110.78462,49.761588 c -2.10804,-0.738443 -4.41973,0.370436 -5.15979,2.480099 -0.74006,2.110068 0.37044,4.419726 2.4801,5.159788 l 0.27287,0.09554 c 0.44331,0.155462 0.89512,0.229144 1.34005,0.229144 1.67121,0 3.23554,-1.043293 3.82014,-2.709243 0.74006,-2.110068 -0.37043,-4.419726 -2.4801,-5.159788 z"
       inkscape:export-xdpi="18.380812"
       inkscape:export-ydpi="18.380812" />
    <g
       style="font-style:normal;font-variant:normal;font-weight:normal;font-stretch:normal;font-size:84.6667px;line-height:1.25;font-family:'Roboto Slab';-inkscape-font-specification:'Roboto Slab';white-space:pre;shape-inside:url(#rect846);fill:#000000;fill-opacity:1;stroke:none"
       id="text844"
       transform="matrix(1.2843501,0,0,1.3543114,-64.982666,-28.200467)"
       aria-label="Geo "
       inkscape:export-xdpi="18.380812"
       inkscape:export-ydpi="18.380812">
      <path
         id="path894"
         style="font-style:normal;font-variant:normal;font-weight:bold;font-stretch:normal;font-size:84.6667px;font-family:'Suez One';-inkscape-font-specification:'Suez One Bold';fill:#000000;fill-opacity:1"
         d="m 261.38509,88.696898 q -14.30868,0 -21.50535,-7.535337 -7.19667,-7.535336 -7.19667,-22.352009 0,-9.059337 3.47134,-15.578673 3.47133,-6.604003 10.07534,-10.075338 6.604,-3.471335 15.66334,-3.471335 11.00667,0 21.42067,4.402669 -0.84667,8.128003 -2.37067,16.256007 l -6.43467,0.423333 -5.334,-7.789336 q -4.23333,-1.524001 -10.49867,-1.524001 -2.96333,0 -7.112,0.592667 -1.524,2.540001 -2.37067,6.773336 -0.84667,4.233335 -0.84667,9.144004 0,9.736671 3.89467,14.562673 3.89467,4.741335 12.10734,4.826002 2.032,0 5.16467,-0.338667 v -6.180669 q 0,-1.693334 -0.254,-2.201335 -0.254,-0.508 -1.43933,-1.185333 l -3.21734,-1.608668 0.33867,-5.757335 1.94733,-0.338667 q 0.93134,-0.169334 6.604,-1.016001 5.67267,-0.931333 9.48267,-1.100667 0.84667,1.608668 1.27001,3.640668 v 22.182676 q -4.91067,2.455335 -10.92201,3.894669 -6.01133,1.354667 -11.938,1.354667 z" />
      <path
         id="path896"
         style="font-style:normal;font-variant:normal;font-weight:bold;font-stretch:normal;font-size:84.6667px;font-family:'Suez One';-inkscape-font-specification:'Suez One Bold';fill:#000000;fill-opacity:1"
         d="m 312.02636,88.696898 q -9.90601,0 -15.32467,-6.011336 -5.33401,-6.011336 -5.33401,-16.594674 0,-7.366003 2.62467,-12.615338 2.62467,-5.334002 7.45067,-8.128004 4.826,-2.794001 11.26067,-2.794001 9.56734,0 14.64734,6.096003 5.16467,6.096002 4.91067,17.356674 l -25.73868,4.741335 q 1.18534,3.556002 3.302,5.249336 2.20134,1.608667 5.75734,1.608667 2.45533,0 5.842,-0.677334 3.38667,-0.762 6.85801,-2.032001 l 1.94733,8.382004 q -3.13267,2.370668 -8.128,3.894668 -4.99534,1.524001 -10.07534,1.524001 z m 6.35,-29.802679 q -0.16933,-3.217335 -1.86267,-4.656669 -1.60866,-1.524001 -4.572,-1.524001 -2.45533,0 -4.65667,0.677334 -1.778,4.148668 -1.60866,8.97467 z" />
      <path
         id="path898"
         style="font-style:normal;font-variant:normal;font-weight:bold;font-stretch:normal;font-size:84.6667px;font-family:'Suez One';-inkscape-font-specification:'Suez One Bold';fill:#000000;fill-opacity:1"
         d="m 359.17116,88.781565 q -10.75267,0 -16.08667,-5.503336 -5.24933,-5.503336 -5.24933,-16.848674 0,-7.281336 2.62466,-12.700005 2.70934,-5.418669 7.70467,-8.297337 4.99534,-2.878668 11.76867,-2.878668 21.92868,0 21.92868,22.690676 0,11.091338 -6.01134,17.356674 -5.92666,6.18067 -16.67934,6.18067 z m 1.35467,-9.906005 q 1.69334,0 2.96334,-0.254 1.27,-0.338666 2.70933,-1.016 0.508,-1.947334 0.84667,-4.995336 0.33866,-3.048001 0.33866,-5.842002 0,-6.858003 -2.20133,-10.414004 -2.11667,-3.556002 -6.35,-3.556002 -2.794,0 -5.67267,0.762 -0.59267,1.270001 -0.93134,4.148669 -0.33866,2.794001 -0.33866,6.434669 0,7.112003 2.20133,10.922005 2.286,3.810001 6.43467,3.810001 z" />
    </g>
    <g
       style="font-style:normal;font-weight:normal;font-size:10.9896px;line-height:1.25;font-family:sans-serif;white-space:pre;shape-inside:url(#rect852);fill:#000000;fill-opacity:1;stroke:none"
       id="text850"
       transform="matrix(10.160903,0,0,10.160903,513.71833,-2762.8966)"
       aria-label="Visualizer"
       inkscape:export-xdpi="18.380812"
       inkscape:export-ydpi="18.380812">
      <path
         id="path901"
         style="font-style:normal;font-variant:normal;font-weight:bold;font-stretch:normal;font-size:10.9896px;font-family:'Suez One';-inkscape-font-specification:'Suez One Bold';fill:#000000;fill-opacity:1"
         d="m -27.159478,285.07291 -0.362657,-0.51651 0.04396,-0.76928 h 3.165005 l 0.109896,1.04402 -0.780261,0.19781 1.461616,4.16506 1.307763,-3.79142 q 0.03297,-0.0879 0.03297,-0.15385 0,-0.14286 -0.131876,-0.18682 l -0.758282,-0.30771 0.07693,-0.96709 h 2.868286 l 0.06594,0.93412 -0.483543,0.61542 -2.395733,5.89042 -1.890211,0.16485 z" />
      <path
         id="path903"
         style="font-style:normal;font-variant:normal;font-weight:bold;font-stretch:normal;font-size:10.9896px;font-family:'Suez One';-inkscape-font-specification:'Suez One Bold';fill:#000000;fill-opacity:1"
         d="m -19.333509,283.06181 1.868232,-0.49453 0.450574,1.67042 -1.857243,0.50552 z m -0.461563,7.12126 0.769272,-0.23078 v -2.67047 q 0,-0.24177 -0.04396,-0.30771 -0.03297,-0.0769 -0.186823,-0.16485 l -0.483542,-0.26375 0.05495,-0.82422 q 0.912137,-0.17583 1.406669,-0.25276 0.505521,-0.0879 0.923126,-0.0989 0.142865,0.47255 0.175834,0.70333 v 3.51667 q 0,0.23078 0.03297,0.30771 0.03297,0.0769 0.186824,0.16485 l 0.53849,0.3077 -0.04396,0.82422 h -3.29688 z" />
      <path
         id="path905"
         style="font-style:normal;font-variant:normal;font-weight:bold;font-stretch:normal;font-size:10.9896px;font-family:'Suez One';-inkscape-font-specification:'Suez One Bold';fill:#000000;fill-opacity:1"
         d="m -13.930404,291.38094 q -0.868178,0 -2.011097,-0.30771 0.06594,-1.07698 0.142865,-1.59349 l 0.626407,-0.12089 0.692345,0.7363 q 0.362657,0.1099 0.813231,0.1099 0.25276,0 0.395625,-0.033 0.03297,-0.0879 0.03297,-0.24177 0,-0.13188 -0.06594,-0.21979 -0.05495,-0.0879 -0.26375,-0.2088 -0.208802,-0.12089 -0.725314,-0.37365 -0.648386,-0.34068 -0.989064,-0.60443 -0.340677,-0.27474 -0.494532,-0.56047 -0.142864,-0.28573 -0.142864,-0.68135 0,-0.87917 0.648386,-1.39568 0.659376,-0.51651 1.780315,-0.51651 0.461563,0 0.967085,0.10989 0.516511,0.0989 0.923126,0.27474 0,0.71433 -0.09891,1.59349 l -0.571459,0.0879 -0.736303,-0.79125 q -0.28573,-0.0879 -0.83521,-0.0879 -0.08792,0 -0.351667,0.022 -0.03297,0.0659 -0.03297,0.2088 0,0.15386 0.08792,0.27474 0.08792,0.1099 0.307709,0.25277 0.230781,0.13187 0.725313,0.38463 0.725314,0.35167 1.087971,0.61542 0.373646,0.25276 0.516511,0.51651 0.153854,0.26375 0.153854,0.6374 0,0.90114 -0.692345,1.40667 -0.681355,0.50552 -1.890211,0.50552 z" />
      <path
         id="path907"
         style="font-style:normal;font-variant:normal;font-weight:bold;font-stretch:normal;font-size:10.9896px;font-family:'Suez One';-inkscape-font-specification:'Suez One Bold';fill:#000000;fill-opacity:1"
         d="m -8.6407997,291.34797 q -0.879168,0 -1.3077624,-0.51651 -0.4285949,-0.5275 -0.4285949,-1.58251 v -1.96713 q 0,-0.24177 -0.04396,-0.30771 -0.03297,-0.0769 -0.186823,-0.16485 l -0.494532,-0.26375 0.05495,-0.82422 q 0.153854,-0.022 0.219792,-0.044 0.120885,-0.022 0.8571887,-0.15385 0.7472928,-0.13187 1.2418248,-0.15385 0.1208856,0.27474 0.1868232,0.63739 v 2.76938 q 0,0.48354 0.021979,0.68136 0.032969,0.19781 0.1758336,0.30771 0.1538544,0.0989 0.5165112,0.0989 0.5275008,0 1.0220328,-0.18682 v -2.39573 q 0,-0.24177 -0.032969,-0.30771 -0.032969,-0.0769 -0.1758336,-0.16485 l -0.4835424,-0.26375 0.043958,-0.82422 q 0.8901576,-0.16484 1.3846896,-0.25276 0.5055216,-0.0879 0.9231264,-0.0989 0.1208856,0.27474 0.1868232,0.63739 v 3.60459 q 0,0.19781 0.032969,0.27474 0.032969,0.0769 0.1538544,0.15386 l 0.439584,0.25276 -0.032969,0.68135 q -0.4725528,0.12089 -1.0879704,0.21979 -0.6154176,0.0879 -1.1429184,0.1099 -0.043958,-0.13188 -0.098906,-0.32969 -0.01099,-0.0879 -0.054948,-0.2088 h -0.032969 q -0.4505736,0.26375 -0.9560952,0.42859 -0.494532,0.15386 -0.9011472,0.15386 z" />
      <path
         id="path909"
         style="font-style:normal;font-variant:normal;font-weight:bold;font-stretch:normal;font-size:10.9896px;font-family:'Suez One';-inkscape-font-specification:'Suez One Bold';fill:#000000;fill-opacity:1"
         d="m -2.3181732,291.33698 q -0.7472928,0 -1.1978664,-0.40662 -0.4505736,-0.4176 -0.4505736,-1.06599 0,-0.86818 0.8681784,-1.36271 0.8791681,-0.49453 2.54958728,-0.56047 0,-0.51651 -0.0879168,-0.75828 -0.0769272,-0.25276 -0.29671921,-0.34068 -0.20880237,-0.0989 -0.64838637,-0.0989 -0.4505736,0 -0.6373968,0.033 l -0.4505737,0.89016 -0.8132304,-0.055 q -0.1868232,-0.87916 -0.2637504,-1.82427 0.6154176,-0.2088 1.3407312,-0.32969 0.7363033,-0.12088 1.3737001,-0.12088 1.16489759,0 1.6704192,0.46156 0.5055216,0.45057 0.5055216,1.50558 v 2.29682 q 0,0.19781 0.032969,0.27474 0.043958,0.0769 0.1758336,0.15386 l 0.439584,0.25276 -0.043958,0.68135 q -1.2747936,0.29672 -2.01109682,0.32969 -0.0219792,-0.0659 -0.0659376,-0.23078 -0.0439584,-0.17583 -0.0769272,-0.32969 -0.42859441,0.27474 -0.94510558,0.43958 -0.5055216,0.16485 -0.9670849,0.16485 z m 0.7363033,-1.24183 q 0.439584,0 1.06599118,-0.29672 l -0.0439584,-0.8352 q -0.26375041,-0.022 -0.35166721,-0.022 -0.29671917,0 -0.69234477,0.0659 -0.3956256,0.055 -0.6264072,0.13188 -0.032969,0.14286 -0.032969,0.26375 0,0.32969 0.1758337,0.51651 0.1868232,0.17583 0.5055216,0.17583 z" />
      <path
         id="path911"
         style="font-style:normal;font-variant:normal;font-weight:bold;font-stretch:normal;font-size:10.9896px;font-family:'Suez One';-inkscape-font-specification:'Suez One Bold';fill:#000000;fill-opacity:1"
         d="m 2.1841276,290.18307 0.769272,-0.23078 v -5.26402 q 0,-0.24177 -0.043958,-0.30771 -0.032969,-0.0769 -0.1868232,-0.16484 l -0.4835424,-0.25276 0.054948,-0.83521 q 0.219792,-0.044 0.3406776,-0.055 1.4506272,-0.26375 2.0220864,-0.28573 0.109896,0.25276 0.1428648,0.57146 v 6.2311 q 0,0.23078 0.032969,0.30771 0.032969,0.0769 0.1868232,0.16485 l 0.5384904,0.3077 -0.043958,0.82422 h -3.29688 z" />
      <path
         id="path913"
         style="font-style:normal;font-variant:normal;font-weight:bold;font-stretch:normal;font-size:10.9896px;font-family:'Suez One';-inkscape-font-specification:'Suez One Bold';fill:#000000;fill-opacity:1"
         d="m 6.401903,283.06181 1.8682321,-0.49453 0.4505736,1.67042 -1.8572425,0.50552 z m -0.4615632,7.12126 0.769272,-0.23078 v -2.67047 q 0,-0.24177 -0.043958,-0.30771 -0.032969,-0.0769 -0.1868232,-0.16485 l -0.4835424,-0.26375 0.054948,-0.82422 q 0.9121368,-0.17583 1.4066689,-0.25276 0.5055216,-0.0879 0.9231264,-0.0989 0.1428648,0.47255 0.1758336,0.70333 v 3.51667 q 0,0.23078 0.032969,0.30771 0.032969,0.0769 0.1868232,0.16485 l 0.5384904,0.3077 -0.043958,0.82422 H 5.9733086 Z" />
      <path
         id="path915"
         style="font-style:normal;font-variant:normal;font-weight:bold;font-stretch:normal;font-size:10.9896px;font-family:'Suez One';-inkscape-font-specification:'Suez One Bold';fill:#000000;fill-opacity:1"
         d="m 9.7609422,290.06219 2.8463068,-3.35183 -1.329742,0.0989 -0.56047,0.7473 -0.7363028,-0.12089 q 0.087917,-1.27479 0.1758338,-1.98912 h 4.428809 l 0.153854,1.29678 -2.637504,3.18698 1.38469,-0.0989 0.648386,-0.76927 0.758283,0.15386 q -0.05495,0.83521 -0.208803,1.97812 H 9.8598486 Z" />
      <path
         id="path917"
         style="font-style:normal;font-variant:normal;font-weight:bold;font-stretch:normal;font-size:10.9896px;font-family:'Suez One';-inkscape-font-specification:'Suez One Bold';fill:#000000;fill-opacity:1"
         d="m 18.063412,291.32599 q -1.285783,0 -1.989117,-0.78026 -0.692345,-0.78026 -0.692345,-2.15396 0,-0.9561 0.340677,-1.63745 0.340678,-0.69235 0.967085,-1.05501 0.626408,-0.36265 1.461617,-0.36265 1.241825,0 1.901201,0.79125 0.670366,0.79125 0.637397,2.25287 l -3.340839,0.61541 q 0.153855,0.46157 0.428595,0.68136 0.285729,0.2088 0.747293,0.2088 0.318698,0 0.758282,-0.0879 0.439584,-0.0989 0.890158,-0.26375 l 0.25276,1.08797 q -0.406615,0.30771 -1.055001,0.50553 -0.648387,0.19781 -1.307763,0.19781 z m 0.82422,-3.86834 q -0.02198,-0.4176 -0.241771,-0.60443 -0.208802,-0.19781 -0.593438,-0.19781 -0.318699,0 -0.604428,0.0879 -0.230782,0.53849 -0.208803,1.16489 z" />
      <path
         id="path919"
         style="font-style:normal;font-variant:normal;font-weight:bold;font-stretch:normal;font-size:10.9896px;font-family:'Suez One';-inkscape-font-specification:'Suez One Bold';fill:#000000;fill-opacity:1"
         d="m 21.180337,290.1501 0.670365,-0.19781 v -2.67047 q 0,-0.24177 -0.03297,-0.30771 -0.03297,-0.0769 -0.175833,-0.16485 l -0.483543,-0.26375 0.03297,-0.82422 q 0.186823,-0.044 0.318699,-0.0549 1.329741,-0.27474 1.967138,-0.29672 0.09891,0.28573 0.186823,0.71432 0.659376,-0.51651 1.120939,-0.71432 h 0.626408 q -0.01099,0.4176 -0.05495,0.91213 -0.04396,0.48355 -0.109896,0.78026 -0.395626,-0.022 -0.582449,-0.022 -0.461563,0 -0.956095,0.0549 v 2.49464 q 0,0.23078 0.03297,0.30771 0.03297,0.0769 0.175834,0.16485 l 0.659376,0.35166 -0.04396,0.78026 h -3.29688 z" />
    </g>
  </g>
</svg>
